<?xml version="1.0" standalone="no"?>
<!DOCTYPE svg PUBLIC "-//W3C//DTD SVG 20010904//EN"
 "http://www.w3.org/TR/2001/REC-SVG-20010904/DTD/svg10.dtd">
<svg version="1.0" xmlns="http://www.w3.org/2000/svg"
 width="1000.000000pt" height="1000.000000pt" viewBox="0 0 1000.000000 1000.000000"
 preserveAspectRatio="xMidYMid meet">
<g transform="translate(0.000000,1000.000000) scale(0.100000,-0.100000)"
fill="#000000" stroke="none">
<path d="M0 5000 l0 -5000 726 0 c592 0 724 2 716 13 -12 14 -38 4229 -27
4247 4 6 708 10 1928 10 1236 0 1963 4 2037 10 580 52 1087 238 1495 549 80
61 262 238 340 331 284 341 450 755 495 1235 27 289 0 694 -63 943 l-22 86
-85 23 c-187 51 -427 91 -680 113 -68 6 -1029 12 -2370 16 l-2255 6 -725 724
-725 724 2345 -3 c2120 -3 2357 -5 2466 -20 585 -80 1030 -252 1389 -535 67
-52 1309 -1289 1523 -1515 143 -151 230 -257 302 -367 255 -389 371 -865 357
-1458 -10 -398 -68 -669 -206 -957 -169 -352 -421 -652 -731 -870 -306 -215
-698 -368 -1140 -446 -251 -43 -202 -42 -2259 -46 -1075 -2 -1957 -5 -1959 -8
-2 -2 -1 -634 3 -1404 l8 -1401 3558 0 3559 0 0 5000 0 5000 -5000 0 -5000 0
0 -5000z"/>
</g>
</svg>
